<svg xmlns:xlink="http://www.w3.org/1999/xlink" xmlns="http://www.w3.org/2000/svg" id="icon-wishlist-321de0b287a1508c2cd05ae867" class="icon-wishlist null null" aria-hidden="true" width="24"  height="24" ><defs><symbol id="wishlist" viewBox="0 0 24 24"><path d="m12 22-8.48-9.66a6.58 6.58 0 0 1 0-8.52A5.21 5.21 0 0 1 7.43 2a5.21 5.21 0 0 1 3.9 1.82l.15.16c.175.186.34.383.49.59.18-.23.34-.41.5-.59l.15-.16A5.21 5.21 0 0 1 16.56 2a5.13 5.13 0 0 1 3.92 1.82 6.57 6.57 0 0 1 0 8.52L12 22zM7.43 3.5a3.72 3.72 0 0 0-2.79 1.32 5 5 0 0 0 0 6.52L12 19.72l7.36-8.37a5 5 0 0 0 0-6.53 3.72 3.72 0 0 0-2.79-1.32 3.76 3.76 0 0 0-2.78 1.31l-.16.19a5.33 5.33 0 0 0-.42.49L12 7.08l-1.21-1.61c-.14-.18-.27-.33-.41-.48l-.16-.18A3.75 3.75 0 0 0 7.44 3.5h-.01z" fill-rule="evenodd"></path></symbol></defs>
            <use xlink:href="#wishlist"></use>
        </svg>