<svg xmlns:xlink="http://www.w3.org/1999/xlink" xmlns="http://www.w3.org/2000/svg" width="211" height="49" viewBox="0 0 211 49">
  <g id="Raggruppa_2343" data-name="Raggruppa 2343" transform="translate(11421.5 -337.5)" fill="#E4002B">
    <rect id="Rettangolo_152" data-name="Rettangolo 152" width="119.74" height="43.413" transform="translate(-11418.566 340.434)" fill="#FFFFFF"></rect>
    <g id="Raggruppa_1481" data-name="Raggruppa 1481" transform="translate(-11421 338)" fill="#E4002B">
      <path id="Tracciato_14" data-name="Tracciato 14" d="M269.476,151.3H147.1v48.233h210V151.3Zm0,45.8H149.538V153.69H269.476Z" transform="translate(-147.1 -151.3)" fill="#E4002B"></path>
      <path id="Tracciato_15" data-name="Tracciato 15" d="M169.759,182.588h3.2v11.74h5.059V166.6h-5.059v11.12h-3.2V166.6H164.7v27.728h5.059Z" transform="translate(-156.301 -159.27)" fill="#E4002B"></path>
      <path id="Tracciato_16" data-name="Tracciato 16" d="M204.4,194.325a5.889,5.889,0,0,0,5.631-3.484c1.193-2.339,1.766-5.966,1.766-10.929,0-4.916-.573-8.59-1.766-10.929a6.293,6.293,0,0,0-11.263,0c-1.193,2.338-1.766,5.966-1.766,10.929,0,4.916.573,8.59,1.766,10.929A5.918,5.918,0,0,0,204.4,194.325Zm-1.909-17.753c0-.811,0-1.575.048-2.338s.143-1.527.239-2.291a6.275,6.275,0,0,1,.525-1.67,1.182,1.182,0,0,1,1-.525,1.1,1.1,0,0,1,1.05.62,6.077,6.077,0,0,1,.573,1.909,34.74,34.74,0,0,1,.239,4.247v6.634c0,.907-.048,1.766-.1,2.673a12.934,12.934,0,0,1-.286,2.243,3.811,3.811,0,0,1-.525,1.384,1.182,1.182,0,0,1-1,.525,1.108,1.108,0,0,1-.907-.43,3.16,3.16,0,0,1-.573-1.384,12.969,12.969,0,0,1-.286-2.2c-.048-.859-.1-1.814-.1-2.863v-6.538Z" transform="translate(-173.186 -158.723)" fill="#E4002B"></path>
      <path id="Tracciato_17" data-name="Tracciato 17" d="M238.286,194.9a6.169,6.169,0,0,0,4.82-1.766c1.1-1.193,1.623-3.054,1.623-5.631V166.6h-4.3v21.524a5.26,5.26,0,0,1-.1.859,2.192,2.192,0,0,1-.334.764,1.645,1.645,0,0,1-.573.573,1.7,1.7,0,0,1-.907.239c-1.145,0-1.766-.811-1.766-2.434V166.6H231.7v21a7.836,7.836,0,0,0,1.623,5.393A6.468,6.468,0,0,0,238.286,194.9Z" transform="translate(-191.254 -159.269)" fill="#E4002B"></path>
      <path id="Tracciato_18" data-name="Tracciato 18" d="M264.143,179.2a9.82,9.82,0,0,0,1.575,1.575c.62.525,1.289,1.1,2.1,1.766a14.478,14.478,0,0,1,2.434,2.434,4.034,4.034,0,0,1,.811,2.434,3.33,3.33,0,0,1-.573,1.909,1.974,1.974,0,0,1-1.67.811,1.791,1.791,0,0,1-1.67-.907,6.408,6.408,0,0,1-.525-2.959v-.429h-4.534c0,2.816.573,4.963,1.67,6.4a5.721,5.721,0,0,0,4.82,2.148,7.842,7.842,0,0,0,2.863-.525,6.005,6.005,0,0,0,2.2-1.575,6.128,6.128,0,0,0,1.384-2.434,9.2,9.2,0,0,0,.477-3.1,10,10,0,0,0-.43-2.911,9.421,9.421,0,0,0-1.479-2.816,19.786,19.786,0,0,0-1.718-1.861c-.668-.62-1.432-1.289-2.243-2a14.479,14.479,0,0,1-2.434-2.434,3.863,3.863,0,0,1-.811-2.338,2.927,2.927,0,0,1,.525-1.814,1.617,1.617,0,0,1,1.384-.716,1.668,1.668,0,0,1,1.527.859,6.048,6.048,0,0,1,.525,2.911v.43h4.534c-.1-2.863-.668-5.011-1.766-6.4a5.627,5.627,0,0,0-4.677-2.052,6.684,6.684,0,0,0-2.768.573,5.629,5.629,0,0,0-2.052,1.575,6.775,6.775,0,0,0-1.289,2.386,10.5,10.5,0,0,0-.43,3.054,9.764,9.764,0,0,0,.525,3.2A9.513,9.513,0,0,0,264.143,179.2Z" transform="translate(-207.016 -158.775)" fill="#E4002B"></path>
      <path id="Tracciato_19" data-name="Tracciato 19" d="M305.492,190.033h-6.634v-7.54h4.725v-4.534h-4.725V170.9h6.4v-4.3H293.8v27.728h11.692Z" transform="translate(-223.666 -159.27)" fill="#E4002B"></path>
      <path id="Tracciato_20" data-name="Tracciato 20" d="M339,194.325a5.889,5.889,0,0,0,5.631-3.484c1.193-2.339,1.766-5.966,1.766-10.929,0-4.916-.573-8.59-1.766-10.929a6.293,6.293,0,0,0-11.263,0c-1.193,2.338-1.766,5.966-1.766,10.929,0,4.916.573,8.59,1.766,10.929A5.964,5.964,0,0,0,339,194.325Zm-1.861-17.753c0-.811,0-1.575.048-2.338s.143-1.527.239-2.291a6.274,6.274,0,0,1,.525-1.67,1.182,1.182,0,0,1,1-.525,1.1,1.1,0,0,1,1.05.62,6.077,6.077,0,0,1,.573,1.909,34.733,34.733,0,0,1,.239,4.247v6.634c0,.907-.048,1.766-.1,2.673a12.938,12.938,0,0,1-.286,2.243,3.811,3.811,0,0,1-.525,1.384,1.182,1.182,0,0,1-1,.525,1.108,1.108,0,0,1-.907-.43,3.16,3.16,0,0,1-.573-1.384,12.971,12.971,0,0,1-.286-2.2c-.048-.859-.1-1.814-.1-2.863v-6.538Z" transform="translate(-243.392 -158.723)" fill="#E4002B"></path>
      <path id="Tracciato_21" data-name="Tracciato 21" d="M372.059,182.779h4.629v-4.486h-4.629v-7.4h6.252v-4.3H367v27.728h5.059Z" transform="translate(-261.871 -159.27)" fill="#E4002B"></path>
      <rect id="Rettangolo_178" data-name="Rettangolo 178" width="210" height="48" transform="translate(0 0)" fill="none" stroke="#FFFFFF" stroke-width="1"></rect>
    </g>
    <path id="Tracciato_22" data-name="Tracciato 22" d="M417.877,234.52H416.3v.525h1v.62h-1v1.145h-1V233.9h2.577Z" transform="translate(-11708.09 143.6)" fill="#FFFFFF"></path>
    <path id="Tracciato_23" data-name="Tracciato 23" d="M425.248,234.845a.564.564,0,0,0-.525-.525c-.286,0-.477.286-.525.525a4.526,4.526,0,0,0,0,.811.564.564,0,0,0,.525.525c.286,0,.43-.239.477-.525a4.907,4.907,0,0,0,.048-.811m-.477,1.861a1.544,1.544,0,0,1-1.67-1.527,1.656,1.656,0,0,1,3.293,0,1.5,1.5,0,0,1-1.623,1.527" transform="translate(-11712.159 143.704)" fill="#FFFFFF"></path>
    <path id="Tracciato_24" data-name="Tracciato 24" d="M433.755,235.093h.716a.275.275,0,0,0,.286-.286.308.308,0,0,0-.286-.286h-.716Zm0,.62v1.1H432.8V233.9h2.1a.881.881,0,0,1,.954.859,1.012,1.012,0,0,1-.573.907l.573,1.145H434.8l-.477-1.1h-.573Z" transform="translate(-11717.223 143.6)" fill="#FFFFFF"></path>
    <path id="Tracciato_25" data-name="Tracciato 25" d="M445.745,234.748c0,.1.1.143.191.143.286.048.286.048.62.1a1.09,1.09,0,0,1,.954.668.771.771,0,0,1-.048.716,1.5,1.5,0,0,1-1.193.525,2.06,2.06,0,0,1-1.67-.62l.477-.334a1.042,1.042,0,0,0,.239.191,1.47,1.47,0,0,0,1.05.191c.048,0,.143-.048.143-.1a.174.174,0,0,0-.1-.239,5.61,5.61,0,0,1-.764-.191,1.236,1.236,0,0,1-.811-.573,1.054,1.054,0,0,1,0-.764,1.154,1.154,0,0,1,.907-.477,2.081,2.081,0,0,1,1.67.477l-.477.382a1.313,1.313,0,0,0-1.1-.143c-.048-.048-.1-.048-.1.048" transform="translate(-11723.382 143.564)" fill="#FFFFFF"></path>
    <path id="Tracciato_26" data-name="Tracciato 26" d="M455.027,236.143c.382,0,.573-.143.573-.382V233.9h.764v2c0,.62-.334.954-1.336.954h-.191c-.954,0-1.336-.334-1.336-.954v-2h.955v1.861c0,.239.191.382.573.382" transform="translate(-11728.027 143.6)" fill="#FFFFFF"></path>
    <path id="Tracciato_27" data-name="Tracciato 27" d="M465.15,235.7a1.294,1.294,0,0,1-.954.954,2.332,2.332,0,0,1-.62.048,1.5,1.5,0,1,1,0-3.007,1.869,1.869,0,0,1,.62.1,1.177,1.177,0,0,1,.907.907l-.811.1c0-.382-.334-.477-.573-.477-.334,0-.573.286-.573.907v.048c0,.573.239.859.573.907.382,0,.62-.048.668-.573Z" transform="translate(-11732.464 143.704)" fill="#FFFFFF"></path>
    <path id="Tracciato_28" data-name="Tracciato 28" d="M474.05,235.7a1.294,1.294,0,0,1-.954.954,2.333,2.333,0,0,1-.62.048,1.5,1.5,0,1,1,0-3.007,1.87,1.87,0,0,1,.62.1,1.177,1.177,0,0,1,.907.907l-.811.1c0-.382-.334-.477-.573-.477-.334,0-.573.286-.573.907v.048c0,.573.239.859.573.907.382,0,.62-.048.668-.573Z" transform="translate(-11737.108 143.704)" fill="#FFFFFF"></path>
    <path id="Tracciato_29" data-name="Tracciato 29" d="M482.82,236.811H480.1V233.9h2.577v.62h-1.623v.525h1.05v.62h-1.05v.525h1.766Z" transform="translate(-11741.911 143.6)" fill="#FFFFFF"></path>
    <path id="Tracciato_30" data-name="Tracciato 30" d="M489.145,234.748c0,.1.1.143.191.143.286.048.286.048.62.1a1.091,1.091,0,0,1,.954.668.771.771,0,0,1-.048.716,1.5,1.5,0,0,1-1.193.525,2.06,2.06,0,0,1-1.67-.62l.477-.334a1.043,1.043,0,0,0,.239.191,1.47,1.47,0,0,0,1.05.191c.048,0,.143-.048.143-.1a.174.174,0,0,0-.1-.239,5.612,5.612,0,0,1-.764-.191,1.236,1.236,0,0,1-.811-.573,1.054,1.054,0,0,1,0-.764,1.154,1.154,0,0,1,.907-.477,2.08,2.08,0,0,1,1.67.477l-.477.382a1.313,1.313,0,0,0-1.1-.143c-.048-.048-.1-.048-.1.048" transform="translate(-11746.035 143.564)" fill="#FFFFFF"></path>
    <path id="Tracciato_31" data-name="Tracciato 31" d="M497.545,234.748c0,.1.1.143.191.143.286.048.286.048.62.1a1.091,1.091,0,0,1,.954.668.771.771,0,0,1-.048.716,1.5,1.5,0,0,1-1.193.525,2.06,2.06,0,0,1-1.67-.62l.477-.334c.048.048.191.143.239.191a1.47,1.47,0,0,0,1.05.191c.048,0,.143-.048.143-.1a.174.174,0,0,0-.1-.239,5.61,5.61,0,0,1-.764-.191,1.236,1.236,0,0,1-.811-.573,1.054,1.054,0,0,1,0-.764,1.154,1.154,0,0,1,.907-.477,2.08,2.08,0,0,1,1.67.477l-.477.382a1.313,1.313,0,0,0-1.1-.143c-.048-.048-.1-.048-.1.048" transform="translate(-11750.419 143.564)" fill="#FFFFFF"></path>
    <path id="Tracciato_32" data-name="Tracciato 32" d="M507.825,234.52H506.2v.525h1.05v.62H506.2v1.145h-1V233.9h2.625Z" transform="translate(-11754.952 143.6)" fill="#FFFFFF"></path>
    <path id="Tracciato_33" data-name="Tracciato 33" d="M514.927,236.143c.382,0,.573-.143.573-.382V233.9h.764v2c0,.62-.334.954-1.336.954h-.191c-.955,0-1.336-.334-1.336-.954v-2h.954v1.861c0,.239.191.382.573.382" transform="translate(-11759.239 143.6)" fill="#FFFFFF"></path>
    <path id="Tracciato_34" data-name="Tracciato 34" d="M522.955,233.9v2.243h1.432v.668H522V233.9Z" transform="translate(-11763.734 143.6)" fill="#FFFFFF"></path>
    <path id="Tracciato_35" data-name="Tracciato 35" d="M533.855,233.9v2.243h1.432v.668H532.9V233.9Z" transform="translate(-11769.433 143.6)" fill="#FFFFFF"></path>
    <rect id="Rettangolo_153" data-name="Rettangolo 153" width="0.954" height="2.911" transform="translate(-11232.905 377.5)" fill="#FFFFFF"></rect>
    <path id="Tracciato_36" data-name="Tracciato 36" d="M545.855,233.9l.716,1.861.764-1.861h.859L547,236.811h-.955L544.9,233.9Z" transform="translate(-11775.706 143.6)" fill="#FFFFFF"></path>
    <rect id="Rettangolo_154" data-name="Rettangolo 154" width="0.954" height="2.911" transform="translate(-11226.319 377.5)" fill="#FFFFFF"></rect>
    <path id="Tracciato_37" data-name="Tracciato 37" d="M561.2,235.475V233.9h.764v2.911h-.811l-1.384-1.67v1.67H559V233.9h.859Z" transform="translate(-11783.076 143.6)" fill="#FFFFFF"></path>
    <path id="Tracciato_38" data-name="Tracciato 38" d="M569.323,235.7v-.573h1.527v1.527h-.334l-.239-.334a1.9,1.9,0,0,1-1.145.334,1.489,1.489,0,0,1-1.432-1.527,1.472,1.472,0,0,1,1.575-1.432c.239,0,.477.048.62.048a1.177,1.177,0,0,1,.907.907l-.811.1c0-.286-.286-.477-.62-.477a.542.542,0,0,0-.573.62v.62c0,.43.286.573.62.573.239,0,.525-.191.525-.382a.047.047,0,0,0-.048-.048h-.573Z" transform="translate(-11787.624 143.704)" fill="#FFFFFF"></path>
    <path id="Tracciato_39" data-name="Tracciato 39" d="M569.632,167.936c.239,0,.525.048.525-.239,0-.191-.191-.239-.382-.239h-.43v.477Zm.764.954h-.286l-.477-.764h-.286v.764h-.239v-1.623h.716a.514.514,0,0,1,.382.1c.143.048.191.239.191.334,0,.334-.239.43-.525.43Zm-1.909-.859a1.194,1.194,0,1,0,1.193-1.145,1.182,1.182,0,0,0-1.193,1.145m-.286,0a1.456,1.456,0,0,1,2.911,0,1.478,1.478,0,0,1-1.432,1.479,1.457,1.457,0,0,1-1.479-1.479" transform="translate(-11787.886 178.715)" fill="#FFFFFF"></path>
    <path id="Tracciato_40" data-name="Tracciato 40" d="M420.359,190.033c3.2-.048,3.341-1.193,3.341-9.593,0-8.352-.143-9.5-3.341-9.545ZM415.3,166.6h4.391c8.495,0,9.306,5.441,9.306,13.84,0,8.018-.668,13.84-8.495,13.84h-5.2Z" transform="translate(-11708.077 178.73)" fill="#FFFFFF"></path>
    <rect id="Rettangolo_155" data-name="Rettangolo 155" width="5.059" height="27.728" transform="translate(-11276.676 345.33)" fill="#FFFFFF"></rect>
    <path id="Tracciato_41" data-name="Tracciato 41" d="M465.3,166.6h11.406v4.3h-6.347v7.063h4.677v4.534h-4.677v7.54h6.634v4.3H465.3Z" transform="translate(-11734.175 178.73)" fill="#FFFFFF"></path>
    <path id="Tracciato_42" data-name="Tracciato 42" d="M495.872,185.787c0,1.575,0,4.3,2.2,4.3a2.413,2.413,0,0,0,2.243-2.673c0-4.963-9.211-6.061-9.211-14.27,0-4.152,2.243-7.54,6.538-7.54,4.534,0,6.3,3.484,6.443,8.447h-4.534c0-1.575,0-4.152-2-4.152-1.193,0-1.909,1-1.909,2.529,0,4.725,9.163,6.3,9.163,14.365,0,4.247-2.434,7.636-6.968,7.636-5.393,0-6.491-4.772-6.491-8.543h4.534Z" transform="translate(-11747.638 179.225)" fill="#FFFFFF"></path>
    <path id="Tracciato_43" data-name="Tracciato 43" d="M523.5,166.6h11.454v4.3h-6.4v7.063h4.725v4.534h-4.725v7.54h6.634v4.3H523.5Z" transform="translate(-11764.519 178.73)" fill="#FFFFFF"></path>
    <path id="Tracciato_44" data-name="Tracciato 44" d="M552.8,166.6h5.059v23.433h5.2v4.3H552.8Z" transform="translate(-11779.835 178.73)" fill="#FFFFFF"></path>
  </g>
</svg>