<svg xmlns:xlink="http://www.w3.org/1999/xlink" xmlns="http://www.w3.org/2000/svg" id="icon-instagram-21548633212962dfd3f9addea8" class="icon-instagram null null" aria-hidden="true" width="30"  height="30" ><defs><symbol id="instagram" viewBox="0 0 24 24"><g fill="none" fill-rule="evenodd"><path d="M0 0h24v24H0z"></path><path d="M12.94 4c1.34.003 1.647.015 2.358.048.85.039 1.433.173 1.942.371a3.93 3.93 0 0 1 1.417.922c.445.446.719.892.922 1.419.198.508.333 1.09.372 1.94.036.783.047 1.078.049 2.795v1.01c-.002 1.717-.013 2.011-.049 2.793-.039.852-.174 1.434-.372 1.943a3.904 3.904 0 0 1-.922 1.417 3.92 3.92 0 0 1-1.417.923c-.51.198-1.091.333-1.942.371-.747.034-1.048.046-2.568.048h-1.46a62.277 62.277 0 0 1-1.909-.02l-.18-.007a64.51 64.51 0 0 1-.48-.02c-.85-.04-1.433-.174-1.942-.372a3.916 3.916 0 0 1-1.416-.923 3.92 3.92 0 0 1-.923-1.417c-.198-.509-.333-1.091-.372-1.943A42.46 42.46 0 0 1 4 12.94v-1.88a42.56 42.56 0 0 1 .047-2.36c.039-.85.174-1.432.372-1.94.204-.527.478-.973.923-1.419a3.94 3.94 0 0 1 1.416-.922c.51-.198 1.091-.332 1.943-.371l.48-.021.18-.007c.392-.012.827-.018 1.699-.02zm-.223 1.441h-1.435c-1.49.002-1.777.013-2.515.047-.78.035-1.203.165-1.485.275-.374.145-.64.319-.92.598-.28.281-.453.546-.599.92-.109.282-.24.706-.275 1.486l-.02.473-.006.176c-.014.414-.019.872-.02 1.867v1.435c.001.994.006 1.452.02 1.867l.006.176.02.472c.035.78.166 1.204.275 1.485.146.373.318.64.599.921.28.28.546.453.92.599.282.11.705.239 1.485.275.738.033 1.025.044 2.515.046h1.436c1.49-.002 1.777-.013 2.514-.046.78-.036 1.204-.166 1.486-.275a2.49 2.49 0 0 0 .92-.599 2.5 2.5 0 0 0 .598-.92c.109-.282.24-.705.276-1.486a58 58 0 0 0 .02-.472l.006-.176c.013-.415.018-.873.02-1.867v-1.435a61.846 61.846 0 0 0-.02-1.867l-.006-.176a58 58 0 0 0-.02-.473c-.036-.78-.167-1.204-.276-1.486a2.481 2.481 0 0 0-.599-.92 2.49 2.49 0 0 0-.919-.598c-.282-.11-.706-.24-1.486-.275-.738-.034-1.024-.045-2.515-.047zM12 7.891a4.11 4.11 0 0 1 0 8.217 4.108 4.108 0 0 1 0-8.217zm0 1.442a2.667 2.667 0 1 0 .002 5.334A2.667 2.667 0 0 0 12 9.333zm4.27-2.564a.96.96 0 1 1 0 1.92.96.96 0 0 1 0-1.92z" fill="#E4002B"></path></g></symbol></defs>
            <use xlink:href="#instagram"></use>
        </svg>