<svg xmlns:xlink="http://www.w3.org/1999/xlink" xmlns="http://www.w3.org/2000/svg" id="icon-account-611721efeec96d66d84e188e7d" class="icon-account null null" aria-hidden="true" width="24"  height="24" ><defs><symbol id="account" viewBox="0 0 24 24"><path d="M12 13.05a8.87 8.87 0 0 1 8.87 8.87h-1.5a7.37 7.37 0 0 0-14.74 0h-1.5A8.87 8.87 0 0 1 12 13.05zm0-10.98a5 5 0 1 1 0 10 5 5 0 0 1 0-10zm0 1.52v.02a3.48 3.48 0 1 0 3.49 3.46A3.48 3.48 0 0 0 12 3.59z"></path></symbol></defs>
            <use xlink:href="#account"></use>
        </svg>