<svg version="1.1" id="icons" xmlns="http://www.w3.org/2000/svg" xmlns:xlink="http://www.w3.org/1999/xlink" x="0px" y="0px" viewBox="0 0 30 30" style="enable-background:new 0 0 30 30;" xml:space="preserve" width="30"  height="30" >
<style type="text/css" fill="#E4002B">
	.st0{fill:#EB0028;}
</style>
<path class="st0" d="M24.76,6.42c-0.2-0.1-0.4-0.22-0.59-0.34c-0.56-0.37-1.06-0.8-1.52-1.29c-1.13-1.29-1.55-2.61-1.71-3.53h0.01
	C20.82,0.49,20.88,0,20.88,0h-5.15v19.92c0,0.27,0,0.53-0.01,0.79c0,0.03,0,0.06,0,0.1c0,0.01,0,0.03,0,0.04c0,0,0,0.01,0,0.01
	c-0.11,1.45-0.94,2.75-2.2,3.47c-0.65,0.37-1.38,0.56-2.13,0.56c-2.4,0-4.35-1.96-4.35-4.37s1.95-4.37,4.35-4.37
	c0.45,0,0.91,0.07,1.34,0.21l0.01-5.25c-2.65-0.34-5.33,0.44-7.37,2.16C4.46,14.05,3.71,14.97,3.14,16
	c-0.22,0.37-1.04,1.88-1.14,4.33c-0.06,1.39,0.35,2.83,0.55,3.42v0.01c0.12,0.35,0.61,1.54,1.4,2.55c0.64,0.81,1.39,1.52,2.23,2.11
	V28.4l0.01,0.01C8.7,30.11,11.46,30,11.46,30c0.48-0.02,2.08,0,3.9-0.86c2.02-0.96,3.17-2.38,3.17-2.38
	c0.73-0.85,1.32-1.82,1.73-2.87c0.47-1.23,0.62-2.7,0.62-3.28V10.03c0.06,0.04,0.89,0.59,0.89,0.59s1.2,0.77,3.07,1.27
	c1.34,0.36,3.15,0.43,3.15,0.43V7.2C27.37,7.27,26.08,7.07,24.76,6.42z" fill="#EB0028"></path>
</svg>