<svg xmlns:xlink="http://www.w3.org/1999/xlink" xmlns="http://www.w3.org/2000/svg" id="icon-youtube-9383ce796897c784cc8c35e737" class="icon-youtube null null" aria-hidden="true" width="30"  height="30" ><defs><symbol id="youtube" viewBox="0 0 24 24"><g fill="none" fill-rule="evenodd"><path d="M0 0h24v24H0z"></path><path d="M10.348 14.213V9.42l4.323 2.405-4.323 2.388zm8.856-7.317c-.608-.68-1.29-.684-1.603-.722C15.362 6 12.003 6 12.003 6h-.006s-3.36 0-5.598.174c-.313.038-.995.042-1.604.722-.48.518-.635 1.692-.635 1.692S4 9.97 4 11.35v1.295c0 1.38.16 2.761.16 2.761s.156 1.175.635 1.693c.61.68 1.409.66 1.765.73C7.84 17.959 12 18 12 18s3.362-.005 5.601-.179c.313-.038.995-.042 1.603-.722.48-.518.636-1.693.636-1.693s.16-1.382.16-2.761V11.35c0-1.38-.16-2.762-.16-2.762s-.156-1.174-.636-1.692z" fill="#E4002B"></path></g></symbol></defs>
            <use xlink:href="#youtube"></use>
        </svg>