<svg version="1.1" id="Livello_1" xmlns="http://www.w3.org/2000/svg" xmlns:xlink="http://www.w3.org/1999/xlink" x="0px" y="0px" viewBox="0 0 30 30" style="enable-background:new 0 0 30 30;" xml:space="preserve" width="30"  height="30" >
<style type="text/css" fill="#E4002B">
	.st0{fill:#EB0028;}
</style>
<g fill="#E4002B">
	<path class="st0" d="M25.37,5.37c-1.93-0.9-4-1.56-6.16-1.94c-0.27,0.48-0.58,1.13-0.79,1.64c-2.3-0.35-4.58-0.35-6.83,0
		c-0.21-0.51-0.53-1.16-0.8-1.64C8.62,3.81,6.55,4.47,4.62,5.38c-3.9,5.9-4.96,11.64-4.43,17.31c2.59,1.93,5.09,3.11,7.56,3.87
		c0.61-0.84,1.15-1.73,1.62-2.67c-0.89-0.34-1.74-0.76-2.55-1.24c0.21-0.16,0.42-0.32,0.63-0.49c4.92,2.3,10.26,2.3,15.12,0
		c0.2,0.17,0.41,0.34,0.63,0.49c-0.81,0.49-1.66,0.9-2.55,1.24c0.47,0.94,1.01,1.83,1.62,2.67c2.47-0.77,4.98-1.94,7.56-3.88
		C30.43,16.12,28.75,10.42,25.37,5.37z M10.04,19.2c-1.48,0-2.69-1.38-2.69-3.06s1.18-3.06,2.69-3.06c1.5,0,2.71,1.38,2.69,3.06
		C12.73,17.83,11.54,19.2,10.04,19.2z M19.96,19.2c-1.48,0-2.69-1.38-2.69-3.06s1.18-3.06,2.69-3.06c1.5,0,2.71,1.38,2.69,3.06
		C22.65,17.83,21.47,19.2,19.96,19.2z" fill="#EB0028"></path>
</g>
</svg>