<svg xmlns:xlink="http://www.w3.org/1999/xlink" xmlns="http://www.w3.org/2000/svg" id="icon-wishlist-filled-e4dad4b435e1f78a6d338a6948" class="icon-wishlist-filled null null" aria-hidden="true" width="32"  height="32" ><defs><symbol id="wishlist-filled" viewBox="0 0 32 32"><path d="M27.171 5.34A6.463 6.463 0 0 0 22.096 3h.005a6.685 6.685 0 0 0-5.063 2.331l-.007.009-.26.26c-.26.26-.39.52-.65.78-.26-.26-.39-.52-.65-.78l-.26-.26A6.687 6.687 0 0 0 10.142 3h-.001l-.089-.001a6.454 6.454 0 0 0-4.972 2.33l-.008.01c-1.273 1.474-2.048 3.409-2.048 5.525s.775 4.051 2.057 5.536l-.009-.011 11.05 12.61 11.05-12.61c1.273-1.474 2.048-3.409 2.048-5.525s-.775-4.051-2.057-5.536l.009.011z"></path></symbol></defs>
            <use xlink:href="#wishlist-filled"></use>
        </svg>